# xmcd CD database file
#
# Track frame offsets:
#	150
#	16312
#	29350
#	44712
#	61387
#	76425
#	88175
#	103250
#	118662
#	136400
#	147612
#
# Disc length: 2156 seconds
#
# Revision: 0
# Processed by: cddbd v1.5.2PL0 Copyright (c) Steve Scherf et al.
# Submitted via: CDex 1.70beta2
#
DISCID=a2086a0b
DTITLE=Various Artist - Nashville Shooters - Slappin Leather
DYEAR=1900
DGENRE=Country
TTITLE0=American honkey tonk bar association
TTITLE1=Live until I die
TTITLE2=Trashy women
TTITLE3=Beer and bones
TTITLE4=Wild man
TTITLE5=Whatcha gonna do with a cowboy
TTITLE6=You can't keep a good man down
TTITLE7=It's such a small world
TTITLE8=I don't even know your name
TTITLE9=If the good die young
TTITLE10=Addicted to a dollar
EXTD=
EXTT0=
EXTT1=
EXTT2=
EXTT3=
EXTT4=
EXTT5=
EXTT6=
EXTT7=
EXTT8=
EXTT9=
EXTT10=
PLAYORDER=
